<?xml version="1.0" standalone="no"?>
<!DOCTYPE svg PUBLIC "-//W3C//DTD SVG 20010904//EN"
 "http://www.w3.org/TR/2001/REC-SVG-20010904/DTD/svg10.dtd">
<svg version="1.0" xmlns="http://www.w3.org/2000/svg"
 width="200.000000pt" height="200.000000pt" viewBox="0 0 200.000000 200.000000"
 preserveAspectRatio="xMidYMid meet">
<metadata>
Created by potrace 1.16, written by Peter Selinger 2001-2019
</metadata>
<g transform="translate(0.000000,200.000000) scale(0.100000,-0.100000)"
fill="#000000" stroke="none">
<path d="M801 1985 c-405 -88 -705 -391 -786 -794 -26 -126 -17 -345 19 -464
54 -181 138 -322 267 -447 138 -133 316 -227 508 -265 126 -26 345 -17 464 19
181 54 322 138 447 267 133 138 227 316 265 508 26 126 17 345 -19 464 -35
117 -73 198 -137 293 -141 209 -377 366 -631 418 -95 20 -307 20 -397 1z m347
-315 c125 -21 220 -88 264 -186 18 -41 19 -68 16 -497 l-3 -454 -30 -49 c-36
-58 -101 -104 -188 -133 -89 -30 -315 -31 -398 -2 -116 39 -171 81 -205 156
-21 45 -24 64 -24 190 0 127 2 145 24 190 29 62 78 112 132 136 23 11 113 44
200 74 213 74 240 89 264 136 24 47 26 119 4 165 -33 69 -141 103 -264 83 -89
-14 -124 -48 -144 -141 l-6 -28 -105 0 -105 0 0 73 c0 81 18 127 74 185 39 42
143 92 210 102 77 11 213 11 284 0z"/>
<path d="M1170 963 c-25 -12 -99 -41 -165 -64 -95 -33 -128 -50 -160 -80 -38
-37 -40 -42 -43 -111 -6 -129 41 -178 177 -186 134 -8 207 29 230 116 7 24 10
104 9 194 l-3 153 -45 -22z"/>
</g>
</svg>
